<svg version="1.0" xmlns="http://www.w3.org/2000/svg"
 width="149.167px" height="172.243px" viewBox="0 0 149.167 172.243">
    <g id="Layer_1">
        <path fill="#585858" d="M74.583,0c11.687,0,22.538,5.011,30.189,13.465l44.672,47.626c1.115,1.188,1.711,2.795,1.711,4.442
            v81.71c0,3.036-2.465,5.5-5.5,5.5H4.583c-3.036,0-5.5-2.464-5.5-5.5v-81.71c0-1.647,0.596-3.255,1.711-4.442L44.394,13.465
            C52.045,5.011,62.896,0,74.583,0 M74.583,8.742c-9.57,0-18.403,4.07-24.719,10.923l-44.672,47.626
            c-0.486,0.519-0.744,1.21-0.744,1.923v81.71c0,2.481,2.019,4.5,4.5,4.5h134c2.481,0,4.5-2.019,4.5-4.5v-81.71
            c0-0.712-0.258-1.403-0.744-1.923l-44.672-47.626C92.986,12.812,84.153,8.742,74.583,8.742L74.583,8.742z"/>
        <circle fill="#F9EBB2" cx="59.523" cy="144.361" r="11.463"/>
        <circle fill="#F9EBB2" cx="89.723" cy="144.361" r="11.463"/>
        <path fill="#FFFFFF" d="M61.809,111.904c0-5.979,4.855-10.833,10.834-10.833c5.979,0,10.834,4.854,10.834,10.833
            c0,5.979-4.855,10.833-10.834,10.833C66.664,122.737,61.809,117.883,61.809,111.904z M72.643,111.904
            c0-3.673-2.982-6.654-6.654-6.654c-3.673,0-6.654,2.981-6.654,6.654c0,3.672,2.981,6.654,6.654,6.654
            C69.661,118.558,72.643,115.576,72.643,111.904z"/>
        <path fill="#FFFFFF" d="M79.035,111.904c0-5.979,4.854-10.833,10.833-10.833c5.979,0,10.834,4.854,10.834,10.833
            c0,5.979-4.855,10.833-10.834,10.833C83.889,122.737,79.035,117.883,79.035,111.904z M89.869,111.904
            c0-3.673-2.982-6.654-6.654-6.654c-3.672,0-6.653,2.981-6.653,6.654c0,3.672,2.981,6.654,6.653,6.654
            C86.887,118.558,89.869,115.576,89.869,111.904z"/>
        <path fill="#FFFFFF" d="M74.583,72.394c-3.999,0-7.274,3.276-7.274,7.274c0,3.999,3.276,7.274,7.274,7.274
            c3.998,0,7.274-3.276,7.274-7.274C81.857,75.67,78.581,72.394,74.583,72.394z M74.583,84.702c-2.74,0-4.966-2.227-4.966-4.966
            c0-2.74,2.226-4.966,4.966-4.966c2.738,0,4.965,2.226,4.965,4.966C79.548,82.475,77.322,84.702,74.583,84.702z"/>
    </g>
</svg>
